<svg id="Capa_1" enable-background="new 0 0 512.176 512.176" height="512" viewBox="0 0 512.176 512.176" width="512" xmlns="http://www.w3.org/2000/svg"><g><path d="m323.35 205.066 75.391 73.266c19.685 19.13 22.75 49.65 7.261 72.312l-35.633 52.136c-4.275 6.255-6.563 13.656-6.563 21.233v39.711h-56.446v-170.076-75.872z" fill="#f1d0a5"/><path d="m398.741 278.332-75.391-73.266-13.294 10.566 64.518 62.7c19.685 19.13 22.75 49.65 7.261 72.312l-35.634 52.136c-4.275 6.255-6.563 13.656-6.563 21.233v39.711h24.166v-39.711c0-7.577 2.287-14.977 6.563-21.233l35.633-52.136c15.49-22.662 12.426-53.182-7.259-72.312z" fill="#f1b986"/><path d="m105.883 402.633c-5.296 0-9.589-4.293-9.589-9.589v-375.956c0-5.296 4.293-9.589 9.589-9.589h207.879c5.296 0 9.589 4.293 9.589 9.589v375.956c0 5.296-4.293 9.589-9.589 9.589z" fill="#78c2a4"/><path d="m323.35 17.088c0-5.296-4.293-9.589-9.589-9.589h-18.991c5.296 0 9.589 4.293 9.589 9.589v375.956c0 5.296-4.293 9.589-9.589 9.589h18.991c5.296 0 9.589-4.293 9.589-9.589z" fill="#66b394"/><path d="m166.115 374.472h87.413c0-23.009 18.652-41.661 41.661-41.661v-255.49c-23.009 0-41.661-18.652-41.661-41.661h-87.413c0 23.009-18.652 41.661-41.661 41.661v255.49c23.009 0 41.661 18.653 41.661 41.661z" fill="#e0f8c5"/><path d="m253.528 35.661h-22.865c0 16.345 9.413 30.491 23.113 37.314 11.364 5.66 18.547 17.276 18.547 29.971v204.24c0 12.685-7.192 24.316-18.547 29.971-13.701 6.823-23.113 20.97-23.113 37.314h22.865c0-23.009 18.652-41.661 41.661-41.661v-255.489c-23.009 0-41.661-18.652-41.661-41.66z" fill="#ccf49f"/><path d="m286.919 463.724-.9-43.381c-.144-6.174-1.253-12.287-3.289-18.118-5.719-16.378-2.48-34.552 8.544-47.946 2.321-2.819 2.684-6.771.915-9.966l-35.159-67.964c-3.609-6.977-2.237-15.494 3.382-20.984 7.095-6.933 18.481-6.757 25.358.393l65.567 68.165-17 68.109-8.848 71.691h-38.57z" fill="#f1d0a5"/><path d="m382.548 504.676h-110.395c-4.882 0-8.84-3.958-8.84-8.84v-23.274c0-4.882 3.958-8.839 8.84-8.839h110.395c4.882 0 8.839 3.958 8.839 8.839v23.274c0 4.883-3.958 8.84-8.839 8.84z" fill="#f6e266"/><path d="m382.338 463.724h-19.974c4.998 0 9.049 3.866 9.049 8.634v23.684c0 4.769-4.051 8.634-9.049 8.634h19.974c4.998 0 9.049-3.866 9.049-8.634v-23.684c0-4.769-4.052-8.634-9.049-8.634z" fill="#ecbe6b"/><g><path d="m376.56 407.013 35.634-52.137c17.592-25.74 14.133-60.193-8.227-81.923l-73.117-71.056v-184.809c0-9.422-7.666-17.088-17.089-17.088h-140.575c-4.143 0-7.5 3.357-7.5 7.5s3.357 7.5 7.5 7.5h140.575c1.151 0 2.089.937 2.089 2.088v259.125l-13.161-13.683v-50.389c0-4.143-3.357-7.5-7.5-7.5s-7.5 3.357-7.5 7.5v35.398c-9.744-7.03-23.519-6.333-32.519 2.462-8.031 7.847-9.961 19.82-4.802 29.794l25.568 49.423c-15.672 6.623-26.78 20.882-29.344 37.752h-73.549c-3.246-21.114-19.975-37.843-41.089-41.089v-241.631c21.114-3.246 37.843-19.975 41.089-41.089h73.556c3.246 21.114 19.976 37.843 41.09 41.089v97.904c0 4.143 3.357 7.5 7.5 7.5s7.5-3.357 7.5-7.5v-104.833c0-4.143-3.357-7.5-7.5-7.5-18.837 0-34.161-15.324-34.161-34.16 0-4.143-3.357-7.5-7.5-7.5h-87.413c-4.143 0-7.5 3.357-7.5 7.5 0 18.836-15.324 34.16-34.16 34.16-4.143 0-7.5 3.357-7.5 7.5v255.49c0 4.143 3.357 7.5 7.5 7.5 18.836 0 34.16 15.324 34.16 34.16 0 4.143 3.357 7.5 7.5 7.5h87.413c4.143 0 7.5-3.357 7.5-7.5 0-14.335 8.779-26.863 21.83-31.874l2.67 5.162c.327.635.421 1.186-.045 1.753-10.495 12.752-14.858 29.546-12.251 45.62h-167.349c-1.151 0-2.089-.937-2.089-2.088v-375.956c0-1.151.938-2.088 2.089-2.088h37.316c4.143 0 7.5-3.357 7.5-7.5s-3.357-7.5-7.5-7.5h-37.316c-9.423 0-17.089 7.666-17.089 17.088v375.957c0 9.422 7.666 17.088 17.089 17.088h171.33c.784 3.401 1.227 6.871 1.308 10.365l.741 35.726h-7.11c-9.01 0-16.339 7.329-16.339 16.339v23.274c0 9.009 7.329 16.339 16.339 16.339h36.204c4.143 0 7.5-3.357 7.5-7.5s-3.357-7.5-7.5-7.5h-36.204c-.738 0-1.339-.601-1.339-1.339v-23.274c0-.738.601-1.339 1.339-1.339h110.396c.739 0 1.34.601 1.34 1.339v23.274c0 .738-.601 1.339-1.34 1.339h-44.204c-4.143 0-7.5 3.357-7.5 7.5s3.357 7.5 7.5 7.5h44.204c9.01 0 16.34-7.33 16.34-16.339v-23.274c0-9.01-7.33-16.339-16.34-16.339h-11.242v-32.211c-.001-6.093 1.817-11.972 5.254-17zm-82.295 49.211-.747-36.056c-.162-6.967-1.409-13.835-3.707-20.415-4.823-13.812-2.044-29.411 7.255-40.708 4.278-5.198 4.958-12.353 1.743-18.259l-35.117-67.883c-2.107-4.074-1.319-8.967 1.962-12.173 4.073-3.979 10.677-3.965 14.711.228l65.567 68.165c2.872 2.986 7.62 3.079 10.604.206 2.985-2.871 3.077-7.619.206-10.604l-25.892-26.917v-68.994l62.664 60.898c17.112 16.63 19.76 43 6.295 62.701l-35.633 52.136c-5.149 7.533-7.871 16.339-7.871 25.465v32.211h-62.04z"/><path d="m243.155 232.838c3.701 1.855 8.21.362 10.067-3.341.228-.455 3.813-7.74 4.777-17.439h3.451c4.143 0 7.5-3.357 7.5-7.5s-3.357-7.5-7.5-7.5h-4.501c-.112-.429-.228-.858-.357-1.287-2.647-8.787-10.147-15.35-19.573-17.126-8.65-1.632-17.028 1.182-21.858 7.339-2.26 2.881-4.333 6.39-6.484 11.074h-30.925c.48-3.245 1.61-5.716 4.165-9.622 2.268-3.466 1.296-8.114-2.171-10.382-3.467-2.267-8.113-1.296-10.382 2.171-4.415 6.75-6.11 11.67-6.682 17.833h-4.489c-4.143 0-7.5 3.357-7.5 7.5s3.357 7.5 7.5 7.5h5.187c3.151 12.252 13.634 20.105 23.972 21.843 1.616.271 3.212.404 4.779.404 11.373 0 21.178-6.981 25.225-18.43.444-1.257.906-2.536 1.38-3.817h24.175c-.857 6.041-3.045 10.607-3.11 10.739-1.836 3.697-.339 8.187 3.354 10.041zm-53.315-13.73c-3.903-.657-8.002-3.05-10.377-7.051h23.271c-3.357 7.707-10.068 7.524-12.894 7.051zm37.124-23.867c1.34-1.708 4.195-2.435 7.277-1.856 2.173.41 4.667 1.576 6.371 3.673h-14.937c.423-.65.852-1.26 1.289-1.817z"/><path d="m202.322 283.896v19.504c0 4.143 3.357 7.5 7.5 7.5s7.5-3.357 7.5-7.5v-19.504c0-4.143-3.357-7.5-7.5-7.5s-7.5 3.358-7.5 7.5z"/><path d="m217.322 126.236v-19.504c0-4.143-3.357-7.5-7.5-7.5s-7.5 3.357-7.5 7.5v19.504c0 4.143 3.357 7.5 7.5 7.5s7.5-3.357 7.5-7.5z"/><path d="m132.601 377.475c4.143 0 7.5-3.357 7.5-7.5s-3.357-7.5-7.5-7.5h-1.878c-4.143 0-7.5 3.357-7.5 7.5s3.357 7.5 7.5 7.5z"/><path d="m288.921 47.658c4.143 0 7.5-3.357 7.5-7.5s-3.357-7.5-7.5-7.5h-1.878c-4.143 0-7.5 3.357-7.5 7.5s3.357 7.5 7.5 7.5z"/><path d="m130.723 32.658c-4.143 0-7.5 3.357-7.5 7.5s3.357 7.5 7.5 7.5h1.878c4.143 0 7.5-3.357 7.5-7.5s-3.357-7.5-7.5-7.5z"/></g></g></svg>