<svg xmlns="http://www.w3.org/2000/svg" viewBox="0 0 64 64"><g data-name="Checklist-delivery-logistics"><rect width="44" height="50" x="10" y="9" fill="#2488ff"/><path fill="#005ece" d="M40,6v9H24V6h4.14a3.983,3.983,0,0,1,7.72,0Z"/><polygon fill="#d80027" points="22 21 22 27 14 27 14 19 22 19 22 21"/><rect width="26" height="2" x="25" y="26" fill="#fff"/><path fill="#ffda44" d="M18,25a1,1,0,0,1-.707-.293l-2-2,1.414-1.414,1.387,1.387L25.4,17.2l1.2,1.6-8,6A1,1,0,0,1,18,25Z"/><rect width="2" height="2" x="13" y="31" fill="#fff"/><rect width="11" height="2" x="17" y="31" fill="#fff"/><rect width="2" height="2" x="13" y="36" fill="#fff"/><rect width="11" height="2" x="17" y="36" fill="#fff"/><rect width="2" height="2" x="13" y="41" fill="#fff"/><rect width="11" height="2" x="17" y="41" fill="#fff"/><rect width="2" height="2" x="13" y="46" fill="#fff"/><rect width="11" height="2" x="17" y="46" fill="#fff"/><rect width="2" height="2" x="13" y="51" fill="#fff"/><rect width="11" height="2" x="17" y="51" fill="#fff"/><rect width="10" height="2" x="27" y="10" fill="#787680"/><circle cx="32" cy="7" r="2" fill="#fff"/><rect width="30" height="25" x="31" y="36" fill="#ffda44"/><rect width="4" height="4" x="35" y="53" fill="#d80027"/><rect width="8" height="2" x="42" y="56" fill="#1a6fb0"/><rect width="4" height="2" x="42" y="52" fill="#1a6fb0"/><rect width="30" height="1" x="31" y="36" fill="#bfa433"/><polygon fill="#3e3d42" points="49 37 49 43 46 41 43 43 43 37 43 32 49 32 49 37"/><polygon fill="#d80027" points="49 36 49 42 46 40 43 42 43 36 43 31 49 31 49 36"/><rect width="12" height="5" x="31" y="31" fill="#ff9811"/><rect width="12" height="5" x="49" y="31" fill="#ff9811"/><rect width="6" height="2" x="32" y="32" fill="#ffad41" rx="1"/></g></svg>