<svg xmlns="http://www.w3.org/2000/svg" viewBox="0 0 64 64"><polygon fill="#eaeaea" points="42.08 4.92 12.08 4.92 5.08 14.92 49.08 14.92 42.08 4.92"/><path fill="#d3d2d1" d="M39.08,40.92c0,5.27,3.43,10.54,6.27,14H5.08v-40h44v16A10,10,0,0,0,39.08,40.92Z"/><rect width="10" height="8" x="22.08" y="14.92" fill="#9e9e9e"/><polygon fill="#9e9e9e" points="22.08 14.92 32.08 14.92 30.08 4.92 24.08 4.92 22.08 14.92"/><path fill="#e21a1a" d="M19.08 51h-8a1 1 0 1 1 0-2h8a1 1 0 0 1 0 2zM19.08 46h-8a1 1 0 1 1 0-2h8a1 1 0 0 1 0 2zM59.08 40.92c0 9-10 18-10 18a40.36 40.36 0 0 1-3.73-4c-2.84-3.46-6.27-8.73-6.27-14a10 10 0 0 1 20 0z"/><circle cx="49.08" cy="40.92" r="3.92" fill="#fc6363"/><path fill="#542020" d="M35,16H5a1,1,0,0,1-.89-.54,1,1,0,0,1,.07-1l7-10A1,1,0,0,1,12,4h3a1,1,0,0,1,0,2H12.52l-5.6,8H35a1,1,0,0,1,0,2Z"/><path fill="#542020" d="M49 16H39a1 1 0 0 1 0-2h8.08l-5.6-8H19a1 1 0 0 1 0-2H42a1 1 0 0 1 .82.43l7 10a1 1 0 0 1 .07 1A1 1 0 0 1 49 16zM32 24H22a1 1 0 0 1-1-1V15a1 1 0 0 1 1-1H32a1 1 0 0 1 1 1v8A1 1 0 0 1 32 24zm-9-2h8V16H23z"/><path fill="#542020" d="M32 16H22a1 1 0 0 1-.77-.37A1 1 0 0 1 21 14.8l2-10A1 1 0 0 1 24 4h6a1 1 0 0 1 1 .8l2 10a1 1 0 0 1-.21.83A1 1 0 0 1 32 16zm-8.78-2h7.56l-1.6-8H24.82zM45.27 56H5a1 1 0 0 1-1-1V52a1 1 0 0 1 2 0v2H43.22C40.61 50.48 38 45.77 38 41A11 11 0 0 1 48 30V16H39a1 1 0 0 1 0-2H49a1 1 0 0 1 1 1V31a1 1 0 0 1-1 1 9 9 0 0 0-9 9c0 5 3.29 10 6 13.37A1 1 0 0 1 45.27 56z"/><path fill="#542020" d="M5 44a1 1 0 0 1-1-1V15a1 1 0 0 1 1-1H35a1 1 0 0 1 0 2H6V43A1 1 0 0 1 5 44zM5 49a1 1 0 0 1-1-1V47a1 1 0 0 1 2 0v1A1 1 0 0 1 5 49zM49 60a1 1 0 0 1-.67-.26 40.4 40.4 0 0 1-3.83-4.11C41.53 52 38 46.55 38 41a11 11 0 0 1 22 0 19.66 19.66 0 0 1-3.09 9.8 1 1 0 1 1-1.72-1A17.8 17.8 0 0 0 58 41a9 9 0 0 0-18 0c0 5 3.29 10 6 13.37 1.2 1.45 2.29 2.59 3 3.25A43.43 43.43 0 0 0 53 53a1 1 0 1 1 1.6 1.2 41.91 41.91 0 0 1-4.95 5.53A1 1 0 0 1 49 60z"/><path fill="#542020" d="M49,46a5,5,0,0,1-5-5,5,5,0,0,1,.53-2.23,1,1,0,1,1,1.78.9A3,3,0,1,0,49,38h-.15a1,1,0,1,1-.22-2A2.3,2.3,0,0,1,49,36a5,5,0,0,1,0,10Z"/></svg>