<svg id="Layer_1" data-name="Layer 1" xmlns="http://www.w3.org/2000/svg" viewBox="0 0 496.41 253.11"><path d="M202.6,138.6c8.6-2.9,15.7-6.4,39.6,1.6h.2c2.2-2.4,2.6-5.5,1.4-7.4-2.4-3.6.7-2.9,1.6-3.3,9.1,0,16.9-.9,36.9,14.8v.2c2.9-1.6,4.5-4.3,3.8-6.5-1-4.1,1.9-2.6,2.6-2.6,8.6,3.3,16.2,5,29.6,26.5v.2c3.3-.5,5.5-2.6,5.9-4.8.5-4.3,2.4-1.7,3.3-1.6,6.9,6,13.4,10.3,18.6,35.1h0c3.3.7,6.2-.3,7.2-2.4,1.9-4,2.9-.9,3.6-.3,4.5,7.9,9.1,14.3,5.5,39.3v.2c2.8,1.7,5.9,1.6,7.6,0,3.1-2.9,2.9.3,3.4,1,1.4,9,3.6,16.5-8.3,38.8l-.2.2c2.1,2.6,5,3.6,7.2,2.6,3.8-1.7,2.8,1.4,2.9,2.1-1.7,9-2.2,16.9-21,33.8h-.2c1,3.1,3.4,5.2,5.9,5,4.1-.3,2.1,2.1,2.1,2.9-4.8,7.9-7.9,15.2-31.3,24.5h-.2c-.2,3.3,1.6,6,3.8,6.7,4.1,1,1.2,2.8.9,3.4-7.1,5.7-12.4,11.5-37.7,12.2H297c-1.2,2.9-.5,6,1.4,7.4,3.4,2.6.2,3.1-.3,3.6-8.6,3.1-15.7,6.5-39.8-1.4h-.2c-2.1,2.4-2.6,5.5-1.2,7.4,2.2,3.6-.9,2.9-1.6,3.3-9.1-.2-17.1.9-36.9-14.8l-.2-.2c-2.9,1.6-4.3,4.3-3.8,6.5,1,4.1-1.7,2.6-2.6,2.6-8.6-3.3-16.2-5-29.5-26.5l-.2-.2c-3.1.5-5.5,2.6-5.9,4.8-.3,4.3-2.4,1.7-3.3,1.6-6.9-6-13.4-10.3-18.6-35.1v-.2c-3.1-.7-6,.5-7.1,2.6-1.9,4-2.9.9-3.6.3-4.5-7.9-9.3-14.3-5.5-39.3V283c-2.8-1.7-5.9-1.7-7.6,0-3.1,2.9-3.1-.3-3.6-1-1.4-9-3.6-16.5,8.4-38.8V243c-2.1-2.6-5-3.6-7.1-2.6-4,1.7-2.8-1.4-3.1-2.1,1.7-9.1,2.2-16.9,21.2-33.8v-.2c-.9-2.9-3.4-5-5.7-4.8-4.3.3-2.2-2.1-2.1-2.9,4.7-7.9,7.8-15.2,31.3-24.5h0c.2-3.3-1.6-6-3.8-6.7-4-1.2-1.2-2.8-.9-3.4,7.1-5.7,12.6-11.5,37.9-12.2h0c1.2-3.1.7-6.2-1.2-7.4C198.9,139.8,202,139.3,202.6,138.6Zm47.8,49.6a67,67,0,1,1-67.2,67A67,67,0,0,1,250.4,188.2Z" transform="translate(-7.8 -129.49)" style="fill:#282829;fill-rule:evenodd"/><path d="M250.4,159.1a96.1,96.1,0,1,1-96.1,96.1A96.13,96.13,0,0,1,250.4,159.1Zm0,31a65.1,65.1,0,1,1-65.1,65.1A65.17,65.17,0,0,1,250.4,190.1Z" transform="translate(-7.8 -129.49)" style="fill:#4b4b4d;fill-rule:evenodd"/><path d="M250.4,189.6a65.6,65.6,0,1,1-65.8,65.6A65.57,65.57,0,0,1,250.4,189.6Z" transform="translate(-7.8 -129.49)" style="fill:#fefefe;fill-rule:evenodd"/><path d="M250.4,176.2a79.1,79.1,0,1,1-79.2,79.1A79.08,79.08,0,0,1,250.4,176.2Zm0,16.7A62.4,62.4,0,1,1,188,255.2,62.35,62.35,0,0,1,250.4,192.9Z" transform="translate(-7.8 -129.49)" style="fill:#02b8e3;fill-rule:evenodd"/><path d="M75.9,312.4a.37.37,0,0,1-.2.3v.2L74.5,315c-.5.7-1,1.2-1.6,1.9a8.12,8.12,0,0,1-.9,1h0l-.9.9a30.27,30.27,0,0,1-7.8,5.9,24.14,24.14,0,0,1-3.3,1.9h0l-3.8,1-.3.2c-1.7.2-2.9.9-4.8,1H48.7a22.78,22.78,0,0,1-5.9.5c-1-.2-1.9-.3-2.9-.5s-2.1,0-3.1-.2a7.09,7.09,0,0,1-2.8-.9,7.49,7.49,0,0,1-2.1-.2,28.87,28.87,0,0,1-9.6-4.8,10,10,0,0,1-1.9-1.2,13.62,13.62,0,0,1-1.7-1.7c-.2,0-.2-.2-.3-.2v-.2l-1-1h-.2a.2.2,0,0,0-.2-.2,5.27,5.27,0,0,1-1-1.7,7.05,7.05,0,0,0-.9-.7l-.3-.3-3.3-6a31.7,31.7,0,0,1-2.6-6.9c-.2-.7,0-1.6-.2-2.1a31.29,31.29,0,0,1-.9-9.1V233.5a25.18,25.18,0,0,1,.9-5.7c.2-.9.2-1.7.3-2.4.5-3.3,2.9-8.1,4.7-10.9v-.2l.2-.2,2.4-3.3h0c.3-.3.7-.9,1-1.2l.3-.2,7.9-6,.2-.2a14.46,14.46,0,0,0,2.2-.9c1.9-1,3.8-1.4,5.7-2.2,3.8-1.4,14.5-.9,18.8-.5,2.4.2,4,1.2,6,1.9h.2l1.6.5.5.2v.2a7.31,7.31,0,0,1,1.9.7l2.1,1v.2c1,.5,2.2,1.7,3.1,2.2a22.83,22.83,0,0,1,6,6l1.9,3.1c1.4,1.9,1.6,3.1,2.6,5.2a8.64,8.64,0,0,0,.7,2.1v.2l.9,2.9.2.2a6.48,6.48,0,0,1,.5,2.1c.7,2.8.5,7.8.7,10.7v17.7c0,9-.2,17.9-.2,26.9,0,4.1.5,8.3-.2,12.4-.2.3,0,1,0,1.4a12.67,12.67,0,0,1-.9,4.7,23.87,23.87,0,0,1-1,2.9.84.84,0,0,1-.2.7,17.14,17.14,0,0,1-2.8,6.5Zm-41.2-17a1.4,1.4,0,0,1,.3.9l1.6,3.3.7.7c.5.3.9.5,1.2.7,2.4,1.4,2.2.5,4.7,1.4a1.33,1.33,0,0,0,.5.3,4.68,4.68,0,0,0,1.6-.2c.5-.2,1.2-.3,1.9-.5a2.54,2.54,0,0,0,1.2-.2c.3-.2.7-.3,1-.5l2.2-1.2a6.1,6.1,0,0,1,1.2-1.6c0-.2.3-.5.3-.7.2-.3.3-.9.7-1.6l.2-.5V233c0-.2-.2-.7-.2-.9-.2-.3-.3-.7-.5-1L51.1,228a5.4,5.4,0,0,0-1.7-.9c-1.7-.5-1.9-.9-4-.9l-4.7.3a4.33,4.33,0,0,0-2.4.9,5.79,5.79,0,0,0-1.7,1.4l-.5.5a22.16,22.16,0,0,0-1.4,3.8c0,1-.2,2.2-.2,3.3-.3,4.5-.2,9.5-.2,14,0,4.7.2,9.1.2,13.6,0,4.7-.2,9.1-.2,13.6,0,4.7-.2,9.6.2,14.3,0,1.1.2,2.3.2,3.5Zm89.6,6.5c5.9,0,12.1-.2,17.9-.2h6a12.46,12.46,0,0,1,3.8.2,11.86,11.86,0,0,1,2.8,1,9.89,9.89,0,0,1,4.7,2.8,11.09,11.09,0,0,1,1.2,1.6c1,1.4,1,2.2,1.6,3.8a3.08,3.08,0,0,0,.5,1.2,8.52,8.52,0,0,1,0,5,6.12,6.12,0,0,1-.7,1.7,5.64,5.64,0,0,1-1.2,3.4.2.2,0,0,0-.2.2l-.2.2c-3.1,4-5.5,4.7-10.2,5.2a23.81,23.81,0,0,1-2.6.5c-13.3.2-26.5-.2-39.8,0h-7.4c-3.4-.2-7.1-1.7-8.8-4.7a11.81,11.81,0,0,1-.5-11.9c1-1.7,1.6-4,2.4-5.7a1.49,1.49,0,0,1,.3-.7l.9-1.9a8.76,8.76,0,0,1,.7-1.2h0l.2-.3a27.5,27.5,0,0,1,1.7-4.3l.3-1,.2-.2v-.2a4.23,4.23,0,0,1,.5-.7v-.3a4.26,4.26,0,0,1,1-1.9l2.6-5.9c.7-1.6.9-2.9,1.7-4.7a12.75,12.75,0,0,1,1-1.7h0a63.54,63.54,0,0,1,2.8-6.7c1-1.9,1.6-4.3,2.8-6.4a15.25,15.25,0,0,0,1.6-3.1,5.93,5.93,0,0,1,1-2.8c.3-.9.7-1.6,1-2.4a8.94,8.94,0,0,1,.9-1.6c.2-.5.3-1,.5-1.6l1-2.6h.2a10.85,10.85,0,0,1,1.7-3.4,11.1,11.1,0,0,1,1.6-4.5,6.81,6.81,0,0,0,1-2.1,8.75,8.75,0,0,1,1-2.2h0l2.9-6.7a10.26,10.26,0,0,1,.7-1.7h0l2.6-5.9c-3.8,0-7.6.2-11.4.2h-11a64.38,64.38,0,0,1-7.6-.3c-2.4-.3-4.8-2.1-6.4-3.8a9.73,9.73,0,0,1-2.2-3.1c-1.7-4.1-1.2-4.7-1.2-8.8s4-8.1,7.8-9.3a6.69,6.69,0,0,1,1.7-.7,8.82,8.82,0,0,1,3.6-.3H127c5.9-.2,11.7-.2,17.7,0,1.9,0,8.4-.2,10.2.5l.5.2,3.4,2.2.3.2c2.9,2.9,4,8.6,2.2,12.2l-3.1,7.2c-.7,1.6-1.2,2.6-1.9,4a39.92,39.92,0,0,0-1.9,4.8v.2l-.9,1.4c-.2.5-.3.9-.5,1.4l-2.2,5.5a6.8,6.8,0,0,1-.9,1.7l-.2.2-.5,1a5.27,5.27,0,0,0-.3,1.2v.3l-2.2,4.7v.2c-.2.2-.2.2-.2.3-.2,0-.2,0-.2.2a2.77,2.77,0,0,1-.5,1.2L139.3,267a13.32,13.32,0,0,1-.5,1.9l-9.5,21.2c-.7,2.4-1.9,3.8-2.8,5.9S125.3,299.8,124.3,301.9Z" transform="translate(-7.8 -129.49)" style="fill:#373435;fill-rule:evenodd"/><path d="M43,307.1c-1,0-.7-.2-1.4-.5-1.6-.5-1.7.3-5.3-1.7-2.6-1.4-.9-.2-3.4-2.8l-1.9-4a4.46,4.46,0,0,1-.7-2.8c-.2-1.4-.2-2.1-.3-3.3-.2-5.5,0-21.4,0-28.1,0-5.5-.2-23.9,0-27.9a31.06,31.06,0,0,0,.3-3.3,22.15,22.15,0,0,1,2.1-6l.3-.3.9-.9,1.7-1.7a13.69,13.69,0,0,1,5-1.9l5-.3a13.22,13.22,0,0,1,5.3,1,7.35,7.35,0,0,1,4,2.2l2.9,4.1c.2.3,0,0,.2.5a3.81,3.81,0,0,1,.3,1,6.44,6.44,0,0,1,.5,2.4v62.7a10.89,10.89,0,0,1-.5,2.6,7,7,0,0,1-1.7,2.9,12.42,12.42,0,0,1-1.9,2.6l-2.9,1.6c-2.2.9-.9.7-3.6,1C45.7,306.7,48.3,307.1,43,307.1Zm33.4-11.9c.5-3.3.2-7.8.2-11.5,0-6.9.3-50.5-.5-54.4-.2-1.2-.3-.7-.5-2.1l-.9-2.4c-.3-.7-.3-1.2-.7-2.1a22.3,22.3,0,0,0-2.1-4.5l-2.1-3.1a22.21,22.21,0,0,0-4.1-4.5,35.35,35.35,0,0,1-3.4-2.4l-1.7-.9a19.49,19.49,0,0,1-2.2-1l-1-.3c-1.4-.3-3.6-1.6-5.3-1.6-2.6-.3-13.8-.9-16.5.2-1.7.7-3.8,1-5.3,2.1-.7.3-1.2.3-2.1.7l-7.4,5.7-.7.7-2.2,3.1v.2c-1.4,2.2-3.8,6.9-4.1,9.3a17.48,17.48,0,0,0-.3,2.4,22.74,22.74,0,0,0-.9,4.8v57.9a22.87,22.87,0,0,0,.9,7.9,10.57,10.57,0,0,1,.2,2.4,26,26,0,0,0,2.1,5.5l3.1,5.5.7.7a8.85,8.85,0,0,0,1.2,1.7l.2.2.9.9.3.3c.5.5,1,.9,1.6,1.4a6.57,6.57,0,0,0,1.7,1.2,28.81,28.81,0,0,0,7.8,4,22.45,22.45,0,0,0,2.4.3c1.2.2.7.3,2.2.7,1,.2,1.9,0,2.9.2,3.3.2,3.1.9,7.4,0,.9-.2,1.9,0,2.8-.2,1.9,0,2.4-.7,4.8-1l3.3-1a16.43,16.43,0,0,0,2.8-1.6,22.61,22.61,0,0,0,6.5-5l.7-.7c.3-.3.3-.5.7-.7.3-.5.9-1,1.2-1.6l1.2-1.9c0-.3,0-.3.2-.5s.2-.2.3-.3a14.61,14.61,0,0,0,2.1-5.2,5.27,5.27,0,0,0,.3-1.2,16.43,16.43,0,0,0,1-3.3C76.7,298.1,76,297.1,76.4,295.2Z" transform="translate(-7.8 -129.49)" style="fill:#fefefe;fill-rule:evenodd"/><path d="M117.6,306.2c.2-.7.3-1.2.5-1.7.9-1.7.7-2.4,1.9-4.5a28.65,28.65,0,0,0,2.4-5.7c.9-1.9,2.2-3.6,2.8-5.7l9.6-21.5a7.58,7.58,0,0,0,.3-1.6l6.7-15.3c.3-.7.2,0,.3-.7a7.26,7.26,0,0,0,.5-1.2l2.1-4.3a10.1,10.1,0,0,0,.3-1.7l.9-1.4a7.46,7.46,0,0,1,.7-1.2l2.4-5.9a9.83,9.83,0,0,0,.5-1.6l.9-1.4a47.8,47.8,0,0,1,1.9-4.8c.7-1.6,1-1.9,1.7-3.8l3.3-7.4c.9-1.9.3-5.5-1.2-6.9l-2.9-1.9c-1-.3-46,0-51.8,0a9.6,9.6,0,0,0-2.4,0c-.7.2-.5.5-1.2.7-1,.3.7-.2-.3.2a6.41,6.41,0,0,0-4.7,4.8c0,4.3-.5,3.6,1,7.1a3.11,3.11,0,0,0,1.2,1.7,8.84,8.84,0,0,0,3.8,2.4c4.8.7,30.1,0,35.7.2,0,.9.2,1.2-.2,1.9l-4.5,10.2c-.3.7-.5.5-.7,1.6l-2.9,6.7c-.2.5,0,.2-.3.5-.5,1-.2.3-.5,1.6-.3.9-1,1.9-1.4,2.8a8,8,0,0,0-1.2,3.1c-.2.5,0,.3-.2.9a18,18,0,0,0-1.7,3.4,3.21,3.21,0,0,0-.3.5l-1,2.4a15.6,15.6,0,0,1-.5,1.6c-.3.7-.3.3-.7,1.4a25.28,25.28,0,0,1-1.4,2.9c-.5.9-.3.3-.5,1.6a17.15,17.15,0,0,1-2.1,4.3c-1.2,2.1-1.6,4.1-2.8,6.4-1,1.9-1.7,4.1-2.6,6.2-.2.7,0,.2-.3.7a9.14,9.14,0,0,1-.7,1.4,19.09,19.09,0,0,0-1.7,4.5l-2.6,5.9c-.3.7-.3.3-.7,1.4s0,.3-.7,1.4l-.3.5-.3,1a23.14,23.14,0,0,0-1.7,4.5l-.5.7c-.3.5-.2.3-.3.7l-1,2.2c-.2.5,0-.2-.3.5a40.74,40.74,0,0,1-2.4,6,6.53,6.53,0,0,0,.5,7.1c.9,1.6,3.1,2.4,4.8,2.4h7.4c12.6,0,27.4.3,39.6,0,1.6,0,.9-.2,2.1-.3,3.4-.5,4.8-.5,7.2-3.4l.2-.2v-.2c.7-.9.5-1.7,1-2.8a8.49,8.49,0,0,0,.3-.9c.5-2.1-.3-2.2-.7-4a3.85,3.85,0,0,0-.9-2.2,4.43,4.43,0,0,0-.7-.9,4.77,4.77,0,0,0-2.8-1.7c-1.2-.3-.9-.7-2.2-.9a13.68,13.68,0,0,0-2.9-.2h-6C135.6,306.2,123.6,306.6,117.6,306.2Z" transform="translate(-7.8 -129.49)" style="fill:#fefefe;fill-rule:evenodd"/><path d="M374.2,226.6l-2.9,1.4a11.07,11.07,0,0,0-2.1,2.2,14.25,14.25,0,0,0-1.4,4.1v79.4c0,2.8.2,4.8-1.4,7.4h0a11.55,11.55,0,0,1-3.3,4.3,8.12,8.12,0,0,0-1,.9h0c-.5.3-.9.5-1.2.7-2.1,1-3.3.9-5.2,1.2a19.91,19.91,0,0,1-5.5-.3,10.76,10.76,0,0,1-5.7-2.9l-.2-.3-2.1-3.3h0a7,7,0,0,1-1-2.6,7.25,7.25,0,0,1-.7-3.3V233.2a6.81,6.81,0,0,1,.7-2.8,9.07,9.07,0,0,1,1-4.5,12.44,12.44,0,0,1,.5-3.1,7.26,7.26,0,0,0,.5-1.2l.9-2.6a7.19,7.19,0,0,1,1.2-2.1,1.33,1.33,0,0,0,.3-.7,35.52,35.52,0,0,1,6.2-8.1c1.6-1.4,3.1-2.4,4.7-3.6h.2l2.4-1.6h0a8,8,0,0,1,2.4-.7c1-.3,2.1-1.2,3.6-1.7a26,26,0,0,1,7.4-1.2c4.3,0,12.1-.7,15.8.9.2,0,.3.2.5.2h0c2.4.3,3.4,1.4,5.3,1.9l.3.2,3.6,1.9.3.2a35,35,0,0,1,9.5,9.3l.2.2,2.1,3.6c.2.5.3.9.5,1.4a13.82,13.82,0,0,1,1,2.2,17,17,0,0,1,.9,2.4,11,11,0,0,0,.3,1.6c.2.7.3,1.2.5,1.9.2.9.2,1.6.3,2.2.2,1.4.5,2.4.7,3.8.3,2.9.2,6.5.2,9.5v15.5c-.2,7.9-.3,15.8-.3,23.8,0,5.7.2,11.4.2,17.1,0,3.4.3,16.7-.5,19.5-.2.2-.2.3-.3.7v.3a11.86,11.86,0,0,1-4.7,6.7c-2.9,1.9-4,1.4-6.7,2.1-2.1.5-7.2-.5-9-1.7a13.52,13.52,0,0,1-5.5-7.4c-.9-2.6-.5-12.6-.5-15.5V275.2c.2-9.1.2-18.3.2-27.4,0-3.1,0-6.4-.2-9.6a28,28,0,0,0,0-4.1l-1-2.2a14.46,14.46,0,0,0-.9-2.2,8.69,8.69,0,0,0-1.7-1.6l-.3-.3h-.2c-2.1-.5-2.2-1-4.5-1A15.69,15.69,0,0,0,374.2,226.6ZM461,276.4c0,3.8-.2,7.8-.2,11.5v12.3h2.4c3.4,0,6.9-.2,10.2-.2,3.6,0,7.2-.2,10.7-.2a55.43,55.43,0,0,1,7.1.3,14.26,14.26,0,0,1,7.6,2.9,5.51,5.51,0,0,1,1.4.9A7,7,0,0,1,503,308a5.08,5.08,0,0,1,1.2,3.6v3.8a13,13,0,0,1-2.9,6.9c-1.9,1.9-4.7,4-7.1,4.5a28.25,28.25,0,0,1-5,.5H448.5c-1.2,0-4.7-.3-5.9-.9a6.35,6.35,0,0,1-1.2-.7,9.11,9.11,0,0,1-3.3-2.2,18.31,18.31,0,0,1-2.6-3.6,16.33,16.33,0,0,1-1.9-6.4V214.3a14.52,14.52,0,0,1,2.2-7.2,30.13,30.13,0,0,1,2.2-2.8,7.66,7.66,0,0,1,3.6-2.1c.2,0,.3-.2.5-.3,2.4-1,4.5-.7,6.9-.7h38c2.6,0,6-.5,8.3,1a12.84,12.84,0,0,1,2.1.7,14.85,14.85,0,0,1,4,3.1,24.89,24.89,0,0,1,1.7,3.1c1.6,2.4,1,4.7,1,7.2a5.46,5.46,0,0,1-1,3.6,6.44,6.44,0,0,1-2.2,3.8,16.22,16.22,0,0,1-3.1,2.4,10.26,10.26,0,0,1-3.8,1.4c-2.1.3-4.5.2-6.5.3H461.1c0,7.1-.2,14.3-.2,21.4h9.3c4.3-.2,8.8-.3,13.1-.2a21.85,21.85,0,0,1,8.6,3.4l.3.3,2.4,2.8v.2c2.1,2.6,2.2,6.7,1.6,9.8-.7,2.9-.7,3.4-3.1,5.9-2.1,2.2-3.4,3.4-6.5,4-.9.2-1.4.5-2.4.7-4.5.7-10,.3-14.5.3Z" transform="translate(-7.8 -129.49)" style="fill:#373435;fill-rule:evenodd"/><path d="M345.4,315.5c0,1.4.2.9.5,1.7.3,1,0,.7.5,1.7l1.7,2.8a5.6,5.6,0,0,0,2.8,1.6,18.19,18.19,0,0,0,4,.2c1.2-.2,2.9,0,3.8-.5a4.23,4.23,0,0,1,.7-.5c.5-.3.2,0,.7-.5a11.71,11.71,0,0,0,2.2-2.9v-.2c.9-1.6.7-3.1.7-5V234.5a14.8,14.8,0,0,1,2.2-6.5c1-1.9,1.2-2.1,3.4-4l4.1-1.7a42.81,42.81,0,0,1,6-.5c3.4,0,3.8.7,5.5,1.2.2,0,.9.2,1,.2.5.2.3,0,.5.3l1,.9c4,3.3,2.4,2.9,3.8,5.3l1.4,3.1c.7,3.4-.3,82.5.3,84.9a11,11,0,0,0,3.8,5.2c.7.5,4.7,1,5,.9,1.9-.5,3.4-.2,5.2-1.4a7.21,7.21,0,0,0,2.8-3.8,4.94,4.94,0,0,1,.5-1.7c.5-1.6.2-30.5.2-34.8,0-6.9.5-43.6.2-48.2a21.15,21.15,0,0,0-.9-3.4,6.84,6.84,0,0,0-.2-2.2c-.2-1.2-.3-.5-.9-3.4-.2-.9-.3-.7-.7-1.6a2.93,2.93,0,0,0-.7-1.6,7.74,7.74,0,0,0-.7-1.6l-1.9-3.4a32,32,0,0,0-8.3-8.1L393,207c-1.9-.5-2.8-1.6-4.7-1.9a3.1,3.1,0,0,1-1.7-.5c-2.6-1-11.2-.5-14-.5a23.66,23.66,0,0,0-6,1.2c-1.4.3-2.6,1.4-3.8,1.7-.9.2-.7,0-1.2.3l-2.2,1.2a23.8,23.8,0,0,0-4,3.1,35.47,35.47,0,0,0-5.5,6.9c-.2.5,0,.3-.2.7l-.3.5c-.5.7-.2-.2-.7,1.2l-.9,2.4a6.12,6.12,0,0,0-.5,1.2c-.3.9-.2,2.2-.5,2.9a5.43,5.43,0,0,0-.7,2.9c0,1.9-.7,1.7-.7,2.8v82.4Z" transform="translate(-7.8 -129.49)" style="fill:#fefefe;fill-rule:evenodd"/><path d="M456.2,224.4c0-1.7,3.6-1.2,5.3-1.2,4.8,0,28.4.2,31.7-.2a7.2,7.2,0,0,0,2.4-1,10.48,10.48,0,0,0,1.7-1.4c1.4-1.4.9-1.2,1.2-2.1.3-1.4.9-.7.9-2.1,0-2.2.2-3.6-.5-4.8-.9-1.6-.3-1.2-1.2-2.2a7.55,7.55,0,0,0-2.6-2.1c-.7-.5-1-.2-1.7-.5-2.1-.7,1.6-.7-6.4-.7H449.1c-1.4,0-3.6-.3-4.7.2-2.4,1.2-1.6.2-3.1,1.6a8,8,0,0,0-1.6,1.9,11.13,11.13,0,0,0-1.4,4.7v99.2c0,.5.9,3.4,1,3.8a10.8,10.8,0,0,0,2.1,2.8c1.7,1.7.9.7,2.2,1.6.5.3-.2,0,.7.3a22.1,22.1,0,0,0,4,.7H489a31.17,31.17,0,0,0,4-.5c1.4-.3,3.4-2.1,4.7-3.1,1.2-1.2.5-1,1-2.1.5-.9.7-.2.7-1.6v-3.8c0-.9-.3-.5-.5-1-.7-1.2-.2-1.9-1.7-2.9-.5-.3-.7-.5-1-.7-2.4-1.6-2.8-1.7-5.9-2.2-3.3-.5-32.9.7-33.9-.3-.5-1-.2-28.9-.2-32.7,5.9-.5,21.7.5,27.2-.2,1-.2,1.2-.5,2.2-.7,1.9-.3,2.6-1,4.1-2.6,1.7-1.9,1.2-1.7,1.7-3.6.3-1.7.3-4.5-.7-6l-2.1-2.2a14.22,14.22,0,0,0-5.7-2.4c-5.5-.2-23.9.5-26.9-.3C456,245.2,456.2,233.2,456.2,224.4Z" transform="translate(-7.8 -129.49)" style="fill:#fefefe;fill-rule:evenodd"/><path d="M399.2,348.8a6.26,6.26,0,0,1,.9,3.1,10.29,10.29,0,0,1-.7,3.3,35.08,35.08,0,0,1-2.8,3.8,18.69,18.69,0,0,1-5.3,4.1,32.47,32.47,0,0,1-7.4,2.8,9.78,9.78,0,0,1-2.6.3,20,20,0,0,1-2.8-.3,6,6,0,0,0-1.2,2.4c-.3,1.2-.5,2.1-.7,2.6-.3,1.4-.5,2.6-.7,3.6a10.21,10.21,0,0,0-.3,2.9,6.61,6.61,0,0,0,.3,2.4,1.72,1.72,0,0,0,1.4.7,6.82,6.82,0,0,0,1.9.2,1.49,1.49,0,0,1-.3.7,1.22,1.22,0,0,1-.9.3c-.2,0-.3-.2-.7-.2h-.7a1,1,0,0,0-.7.2,19.19,19.19,0,0,0-2.2.3,9.06,9.06,0,0,1-2.2.5,2.18,2.18,0,0,1-.7-.9v-2.4c1.4-5.3,2.6-10.2,3.8-14.6,1.4-4.3,2.8-8.6,4.1-12.9a5.23,5.23,0,0,1,1.7-1.2,20,20,0,0,1,4-1.2c.2.2.2.5.2.9a2.39,2.39,0,0,0-.9.3,1.23,1.23,0,0,0-.5,1c-1.6,4-2.9,8.1-4.5,12.1-.2.3-.2.5,0,.7,0,.2.2.3.5.3h1.9a13.82,13.82,0,0,0,6.7-1.6,10.9,10.9,0,0,0,4.8-4.5,11.81,11.81,0,0,0,1.6-2.9,7,7,0,0,0,.7-3.1,4.56,4.56,0,0,0-.9-2.9,4.26,4.26,0,0,0-2.6-1.6,11.42,11.42,0,0,0-3.3-.5c-.7,0-2.1.2-4.1.3a32.85,32.85,0,0,0-7.2,2.2,45.21,45.21,0,0,0-8.6,4.7,4,4,0,0,0-2.2,2.9,1.22,1.22,0,0,1-.9.3c-.2-.2-.2-.5-.2-.9v-2.1a4.19,4.19,0,0,0,.2-1.4,6.1,6.1,0,0,1,1.6-1.2,6.8,6.8,0,0,1,1.7-.9,51.2,51.2,0,0,1,11-4.3,37.71,37.71,0,0,1,11.5-1.7,21.4,21.4,0,0,1,5,.5A7.08,7.08,0,0,1,399.2,348.8Zm21.3,12a3.5,3.5,0,0,1-.3,1.2,8.12,8.12,0,0,1-1,.9.55.55,0,0,1-.5-.2c0-.2-.2-.2-.3-.2a30.55,30.55,0,0,0-2.9,7.6,33.65,33.65,0,0,0-1,8.3c0,.5,0,.9.2,1,.2.3.3.3.7.3a4.07,4.07,0,0,0,1-.2c.2,0,.3.2.5.3,0,.3-.2.5-.3.9a5.2,5.2,0,0,1-.5.3l-4,1.4a3.81,3.81,0,0,1-1-.3,1.59,1.59,0,0,1-.5-1,2.17,2.17,0,0,1-.2-1v-1.7a4.88,4.88,0,0,0,.3-1.4,6.15,6.15,0,0,0,.2-1.9c-.2,0-.2,0-.2-.2a35.1,35.1,0,0,1-4.8,4c-1.6,1-3.3,2.1-5.3,3.1a10.34,10.34,0,0,1-1.2.3c-.5,0-.9.2-1.2.2-.5,0-1-.2-1.4-.2a7.74,7.74,0,0,1-1.2-1c-.7-.7-.9-1.7-.9-3.3a7.49,7.49,0,0,1,.2-2.1c.2-.7.7-2.1,1.4-4.5.7-2.2,2.8-4.7,6-7.1a30.61,30.61,0,0,1,11.2-5h3.3a5.55,5.55,0,0,1,1.9.2c.7.2,1,.2,1.2.3a1.33,1.33,0,0,0,.7.3C420.4,360.3,420.5,360.5,420.5,360.8Zm-4.4,1.4v-.3a4.68,4.68,0,0,1-1.6-.2h-1.6a16.61,16.61,0,0,0-8.3,2.4c-2.6,1.7-4.1,3.4-4.8,5.2-.5,1.7-.9,2.9-1,3.6a9.38,9.38,0,0,0-.2,2.2,6.82,6.82,0,0,0,.2,2.1,17,17,0,0,0,1,1.4,2.64,2.64,0,0,0,1.9.7,16.45,16.45,0,0,0,2.2-.5,16.07,16.07,0,0,0,4-3.3,19.23,19.23,0,0,0,3.8-6,10.19,10.19,0,0,0,1.2-3.8C413.5,363.6,414.5,362.5,416.1,362.2Zm22.7,0a14.45,14.45,0,0,1-.7,2.2,2.41,2.41,0,0,1-1.2,1.6c-.2,0-.3-.2-.3-.7a1.59,1.59,0,0,0-.5-1,1.5,1.5,0,0,0-1.2-.5.55.55,0,0,0-.5.2,9,9,0,0,0-4,3.6c-.5,1.2-1.6,4.1-3.1,8.6a3.53,3.53,0,0,0-.3,1.4c0,.3-.2.7-.2,1a5.27,5.27,0,0,0,.3,1.2c.2.3.3.7.7.9a1.23,1.23,0,0,0,.7.2,4.07,4.07,0,0,0,1-.2c.3,0,.5.2.7.2a1.58,1.58,0,0,1-1.7,1.2,9.88,9.88,0,0,0-1.9.2,8.87,8.87,0,0,1-1.4.3h-1c-.5,0-1,0-1.2-.3a1.5,1.5,0,0,1-.5-1.2,1,1,0,0,1,.2-.7,20.55,20.55,0,0,1,1.2-4.1c.9-2.4,1.6-5,2.4-7.6s1.2-4,1.4-4.1v-.9a2.17,2.17,0,0,0-.2-1.2,2.58,2.58,0,0,0-.9-.9c-.2-.2-.3-.2-.7-.2h-.5a.55.55,0,0,1-.5.2c-.2,0-.2,0-.2-.2-.2,0,0-.2,0-.5a4.57,4.57,0,0,1,1.7-.7,18.32,18.32,0,0,0,1.9-.2h1.4c.4,0,.7-.2,1.2-.2a1.8,1.8,0,0,1,1,.2c.2,0,.3.2.3.5a1.83,1.83,0,0,1-.2.9v.9a2.17,2.17,0,0,0,.2,1.2c.9-.9,1.9-1.7,2.8-2.6a5.09,5.09,0,0,1,3.3-1.4c.3.2.5.3.5.5.2.2.2.5.2.9v.9C438.8,361.9,438.8,362,438.8,362.2Zm22.1-2.2a1.59,1.59,0,0,1,.5,1c0,.2-.2.5-.3,1a4.17,4.17,0,0,0-.5,1c-.3.3-.7.5-.9.2,0-.2-.2-.3-.3-.7,0-.2-.3-.5-.5-.7h-2.1a11.14,11.14,0,0,0-5.9,1.6,14.22,14.22,0,0,0-4.7,4.5c-.7,1.6-1.2,2.9-1.6,4a9.23,9.23,0,0,0-.3,2.8,5.31,5.31,0,0,0,.9,3.3,4.27,4.27,0,0,0,3.3,1.9,6.17,6.17,0,0,0,3.1-.7,25.15,25.15,0,0,0,2.4-1.9c.7-.9,1.2-1.2,1.6-1.2h.7c.2,0,.3,0,.3.2v.5a27.43,27.43,0,0,1-4.1,3.4,24.13,24.13,0,0,1-5,2.1,9.38,9.38,0,0,1-2.2.2,5.19,5.19,0,0,1-3.3-.9,9.76,9.76,0,0,1-1.6-2.1,7.8,7.8,0,0,1-.3-2.2c0-.7.2-1.4.2-2.1.2-.7.9-2.4,1.9-5s3.1-4.8,6-6.7a25.6,25.6,0,0,1,10.7-4h.9C460,359.4,460.3,359.6,460.9,360Zm20.5,2.5a10.77,10.77,0,0,1-3.1,4.5,22.47,22.47,0,0,1-5.3,3.6,5.41,5.41,0,0,1-1.9.3,5,5,0,0,1-1.7-.2c-.5,0-1-.2-1.6-.2a2.57,2.57,0,0,0-.7,1.4c-.2.5-.3,1.2-.5,1.7a7.84,7.84,0,0,0-.2,2.2,5,5,0,0,0,.7,2.9,7.47,7.47,0,0,0,1.4,1.2,5.08,5.08,0,0,0,1.7.3,2.4,2.4,0,0,0,1-.2,8,8,0,0,0,2.1-1.2,5.48,5.48,0,0,0,1.9-2.2c.3-.5.7-.5,1.4-.3.2,0,.2.2,0,.5,0,.3-.2.7-.2.9a8.53,8.53,0,0,1-4,3.3,28,28,0,0,1-6,1.4,4.52,4.52,0,0,1-3.1-1.2,4,4,0,0,1-.7-1.6,5.41,5.41,0,0,1-.3-1.9,38.26,38.26,0,0,1,.7-4.3c.5-2.1,2.2-4.8,5.2-8.1s6.2-5.3,9.8-6a9,9,0,0,1,1.6.2,2.35,2.35,0,0,1,1,.5,6.07,6.07,0,0,1,.7,1A7.57,7.57,0,0,0,481.4,362.5Zm-4.9,3.3a4.05,4.05,0,0,0,.3-1.2,1.74,1.74,0,0,0-.9-1.4,2.19,2.19,0,0,0-1.7-.7,6.66,6.66,0,0,0-3.8,2.4,13.1,13.1,0,0,0-2.2,4,1.39,1.39,0,0,0,1,.5h1.2a6.87,6.87,0,0,0,3.6-.9A4.72,4.72,0,0,0,476.5,365.8Zm18.1-16.3a2.54,2.54,0,0,1,.2,1.2,6.4,6.4,0,0,1-.7,2.8,11.64,11.64,0,0,1-1,2.2v.9c-1.4,4.1-2.6,8.1-3.4,11.5-1,3.6-1.7,7.4-2.4,11.4v1c0,.2.2.3.5.5.2,0,.5.2.7,0h.5c.3,0,.5,0,.5.2,0,.7-.2.9-.5.9-.7,0-1.7.2-3.1.2a14.29,14.29,0,0,1-2.4.2h-1.2a1.05,1.05,0,0,1-.5-.9,40.21,40.21,0,0,1,1.4-4c.7-2.4,1.9-5.9,3.3-10.3,1.2-4.7,2.2-8.1,2.8-10.5a32.77,32.77,0,0,0,.9-4v-.9a2.17,2.17,0,0,0-.2-1.2,1.35,1.35,0,0,0-.9-.5c-.3,0-.7-.2-1.2-.2H487s-.2-.2,0-.3v-.5a.55.55,0,0,0,.2-.5,5.63,5.63,0,0,0,1,.2h3.4a12,12,0,0,1,1.7-.2h1v-.3C494.3,348.2,494.4,348.6,494.6,349.5Z" transform="translate(-7.8 -129.49)" style="fill:#373435"/></svg>