<?xml version="1.0" encoding="UTF-8"?>
<svg xmlns="http://www.w3.org/2000/svg" xmlns:xlink="http://www.w3.org/1999/xlink" version="1.1" id="Layer_1" x="0px" y="0px" viewBox="0 0 24 24" style="enable-background:new 0 0 24 24;" xml:space="preserve">
<g>
	<path style="fill:#303C42;" d="M15.5,12c1.356,0,2.573-0.799,3.146-2.015C20.507,9.907,22,8.38,22,6.5C22,4.57,20.43,3,18.5,3   c-1.397,0-2.597,0.829-3.158,2.016C13.487,5.1,12,6.624,12,8.5C12,10.43,13.57,12,15.5,12z"/>
	<circle style="fill:#FFCA28;" cx="18.5" cy="6.5" r="2.5"/>
	<path style="fill:#FFCA28;" d="M15.045,6.052C15.026,6.201,15,6.347,15,6.5c0,0.255,0.031,0.502,0.083,0.741   C15.035,7.318,15,7.403,15,7.5v2c0,0.276,0.224,0.5,0.5,0.5S16,9.776,16,9.5V8.942c0.427,0.437,0.97,0.751,1.576,0.919   C17.122,10.557,16.349,11,15.5,11C14.121,11,13,9.878,13,8.5C13,7.285,13.872,6.273,15.045,6.052z"/>
	<path style="opacity:0.1;" d="M16,9.5c0,0.217-0.14,0.398-0.334,0.467c0.33,0.27,0.685,0.51,1.083,0.679   c0.327-0.196,0.614-0.459,0.826-0.785C16.97,9.693,16.427,9.379,16,8.942V9.5z"/>
	<path style="opacity:0.1;" d="M14.002,6.519C14.007,7.572,14.388,8.528,15,9.294V7.5c0-0.097,0.035-0.182,0.083-0.259   C15.031,7.002,15,6.755,15,6.5c0-0.153,0.026-0.299,0.045-0.448C14.656,6.126,14.304,6.293,14.002,6.519z"/>
	<path style="fill:#303C42;" d="M18.5,8C18.776,8,19,7.776,19,7.5v-2C19,5.224,18.776,5,18.5,5S18,5.224,18,5.5v2   C18,7.776,18.224,8,18.5,8z"/>
	<path style="fill:#303C42;" d="M21,14.5c-0.976,0-3,0.544-4.026,0.838C16.838,13.904,15,13.396,13.1,13.01   c-0.867-0.176-1.513-0.487-2.137-0.788C10.193,11.851,9.467,11.5,8.5,11.5c-1.107,0-2.116,0.226-2.685,0.383   c-0.151-0.524-0.578-0.946-1.145-1.059L0.598,10.01c-0.146-0.029-0.299,0.009-0.415,0.104C0.067,10.208,0,10.35,0,10.5v8   C0,18.776,0.224,19,0.5,19h3.133c0.617,0,1.144-0.393,1.37-0.944C6.123,18.59,11.301,21,13.5,21c1.939,0,5.933-1.963,8.574-3.262   c0.688-0.338,1.258-0.619,1.627-0.78C23.883,16.878,24,16.698,24,16.5C24,15.322,22.767,14.5,21,14.5z"/>
	<path style="fill:#546E7A;" d="M3.633,18H1v-6.89l3.475,0.695c0.26,0.052,0.435,0.298,0.396,0.561l-0.743,5.205   C4.093,17.815,3.88,18,3.633,18z"/>
	<path style="fill:#FFCCBC;" d="M21.633,16.841C19.229,18.022,15.207,20,13.5,20c-1.818,0-6.595-2.129-8.281-2.95   c-0.002-0.001-0.004-0.001-0.006-0.001l0.588-4.12C6.166,12.814,7.279,12.5,8.5,12.5c0.738,0,1.308,0.275,2.029,0.623   c0.647,0.313,1.382,0.667,2.371,0.868c2.173,0.44,3.1,0.892,3.1,1.51c0,0.122-0.037,0.197-0.132,0.268   c-0.318,0.238-1.56,0.637-6.226-0.748c-0.269-0.077-0.544,0.073-0.622,0.337s0.072,0.543,0.337,0.622   c2.304,0.683,4.064,1.023,5.313,1.023c0.813,0,1.41-0.145,1.796-0.433c0.033-0.025,0.15-0.082,0.182-0.091   C17.531,16.206,20.036,15.5,21,15.5c0.815,0,1.674,0.248,1.926,0.713C22.577,16.377,22.137,16.594,21.633,16.841z"/>
	<linearGradient id="SVGID_1_" gradientUnits="userSpaceOnUse" x1="4.6395" y1="14.183" x2="11.4995" y2="21.043">
		<stop offset="0" style="stop-color:#000000;stop-opacity:0.1"/>
		<stop offset="1" style="stop-color:#000000;stop-opacity:0"/>
	</linearGradient>
	<path style="fill:url(#SVGID_1_);" d="M5.786,13.037l-0.573,4.012c0.002,0.001,0.004,0.001,0.006,0.001   c1.466,0.713,5.264,2.413,7.427,2.846L5.786,13.037z"/>
	<linearGradient id="SVGID_2_" gradientUnits="userSpaceOnUse" x1="1.5221" y1="7.125" x2="23.6186" y2="17.4288">
		<stop offset="0" style="stop-color:#FFFFFF;stop-opacity:0.2"/>
		<stop offset="1" style="stop-color:#FFFFFF;stop-opacity:0"/>
	</linearGradient>
	<path style="fill:url(#SVGID_2_);" d="M15.5,12c1.356,0,2.573-0.799,3.146-2.015C20.507,9.907,22,8.38,22,6.5   C22,4.57,20.43,3,18.5,3c-1.397,0-2.597,0.829-3.158,2.016C13.487,5.1,12,6.624,12,8.5C12,10.43,13.57,12,15.5,12z M21,14.5   c-0.976,0-3,0.544-4.026,0.838C16.838,13.904,15,13.396,13.1,13.01c-0.867-0.176-1.513-0.487-2.137-0.788   C10.193,11.851,9.467,11.5,8.5,11.5c-1.107,0-2.116,0.226-2.685,0.383c-0.151-0.524-0.578-0.946-1.145-1.059L0.598,10.01   c-0.146-0.029-0.299,0.009-0.415,0.104C0.067,10.208,0,10.35,0,10.5v8C0,18.776,0.224,19,0.5,19h3.133   c0.617,0,1.144-0.393,1.37-0.944C6.123,18.59,11.301,21,13.5,21c1.939,0,5.933-1.963,8.574-3.262   c0.688-0.338,1.258-0.619,1.627-0.78C23.883,16.878,24,16.698,24,16.5C24,15.322,22.767,14.5,21,14.5z"/>
</g>
<g>
</g>
<g>
</g>
<g>
</g>
<g>
</g>
<g>
</g>
<g>
</g>
<g>
</g>
<g>
</g>
<g>
</g>
<g>
</g>
<g>
</g>
<g>
</g>
<g>
</g>
<g>
</g>
<g>
</g>

	
	<metadata>
		<rdf:RDF xmlns:rdf="http://www.w3.org/1999/02/22-rdf-syntax-ns#" xmlns:rdfs="http://www.w3.org/2000/01/rdf-schema#" xmlns:dc="http://purl.org/dc/elements/1.1/">
			<rdf:Description about="https://iconscout.com/legal#licenses" dc:title="Money" dc:description="Money" dc:publisher="Iconscout" dc:date="2017-03-22" dc:format="image/svg+xml" dc:language="en">
				<dc:creator>
					<rdf:Bag>
						<rdf:li/>
					</rdf:Bag>
				</dc:creator>
			</rdf:Description>
		</rdf:RDF>
    </metadata></svg>
