<svg height="512" viewBox="0 0 512 512" width="512" xmlns="http://www.w3.org/2000/svg"><g><g><path d="m344 360h-9.15l9.15 81v23a32 32 0 0 1 -32 32h-208a32 32 0 0 1 -32-32v-448h48v176h176v-176h48z" fill="#bdfdff"/><circle cx="344" cy="344" fill="#d80027" r="96"/><path d="m304 304 80 80" fill="#d8d7da"/><path d="m384 304-80 80" fill="#d8d7da"/><path d="m368 56h-48l-24-40h48z" fill="#46f8ff"/></g><g><path d="m168 456h-64a8 8 0 0 0 0 16h64a8 8 0 0 0 0-16z"/><path d="m200 456h-8a8 8 0 0 0 0 16h8a8 8 0 0 0 0-16z"/><path d="m352 240.3v-176.3h16a8 8 0 0 0 6.86-12.12l-24-40a8 8 0 0 0 -6.86-3.88h-48a7.77 7.77 0 0 0 -.97.07l-.26.03c-.25.04-.49.09-.74.15l-.22.06a8.3 8.3 0 0 0 -1.76.74c-.07.04-.14.08-.2.12-.21.13-.41.27-.61.41-.07.05-.14.1-.21.16a8.043 8.043 0 0 0 -.7.61.27.27 0 0 1 -.07.08 8.421 8.421 0 0 0 -.55.64 1.768 1.768 0 0 0 -.16.22 5.824 5.824 0 0 0 -.44.66c-.02.04-.05.07-.07.11-.01.01-.01.03-.02.04-.16.29-.3.58-.43.88-.02.05-.03.1-.05.15a7.661 7.661 0 0 0 -.25.77 2.335 2.335 0 0 0 -.07.25c-.06.25-.1.5-.14.76-.01.07-.02.13-.03.2a8.686 8.686 0 0 0 -.05.89v168h-160v-168a8 8 0 0 0 -8-8h-48a8 8 0 0 0 -8 8v448a40.04 40.04 0 0 0 40 40h208a40.04 40.04 0 0 0 40-40v-16.3a104.009 104.009 0 0 0 0-207.4zm-12.53-216.3 14.4 24h-29.34l-14.4-24zm-3.47 440a24.032 24.032 0 0 1 -24 24h-208a24.032 24.032 0 0 1 -24-24v-440h32v168a8 8 0 0 0 8 8h176a8 8 0 0 0 8-8v-147.12l9.14 15.24a8 8 0 0 0 6.86 3.88h16v176.3a104.009 104.009 0 0 0 0 207.4zm8-32a88 88 0 1 1 88-88 88.1 88.1 0 0 1 -88 88z"/><path d="m389.657 298.343a8 8 0 0 0 -11.314 0l-34.343 34.343-34.343-34.343a8 8 0 0 0 -11.314 11.314l34.343 34.343-34.343 34.343a8 8 0 0 0 11.314 11.314l34.343-34.343 34.343 34.343a8 8 0 0 0 11.314-11.314l-34.343-34.343 34.343-34.343a8 8 0 0 0 0-11.314z"/><path d="m104 344a7.974 7.974 0 0 0 5.657-2.343l96-96a8 8 0 0 0 -11.314-11.314l-96 96a8 8 0 0 0 5.657 13.657z"/><path d="m202.343 266.343-56 56a8 8 0 0 0 11.314 11.314l56-56a8 8 0 1 0 -11.314-11.314z"/><path d="m201.657 314.343a8 8 0 0 0 -11.314 0l-24 24a8 8 0 0 0 11.314 11.314l24-24a8 8 0 0 0 0-11.314z"/></g></g></svg>