<svg height="512" viewBox="0 0 512 512" width="512" xmlns="http://www.w3.org/2000/svg"><g id="Flat"><path d="m200 24h288v320h-288z" fill="#f9a40f"/><path d="m200 24h288v120h-288z" fill="#ffb431"/><path d="m312 24h64v120h-64z" fill="#f88400"/><path d="m376 144h-64v72l16-8 16 8 16-8 16 8z" fill="#ef7800"/><path d="m448 304h16v16h-16z" fill="#ef7800"/><path d="m416 304h16v16h-16z" fill="#ef7800"/><path d="m384 304h16v16h-16z" fill="#ef7800"/><rect fill="#cececc" height="264" rx="24" width="288" x="24" y="224"/><rect fill="#d8d8d6" height="264" rx="24" width="288" x="24" y="192"/><path d="m312 248v-32a24 24 0 0 0 -24-24h-240a24 24 0 0 0 -24 24v32z" fill="#d65246"/><path d="m248 424h-200a24 24 0 0 1 -24-24v-152h288v112z" fill="#dfdfdd"/><path d="m248 424v-40a24 24 0 0 1 24-24h40z" fill="#eaeae8"/><g fill="#b7b7b5"><path d="m56 288h32v32h-32z"/><path d="m120 288h32v32h-32z"/><path d="m184 288h32v32h-32z"/><path d="m248 288h32v32h-32z"/><path d="m56 352h32v32h-32z"/><path d="m120 352h32v32h-32z"/><path d="m184 352h32v32h-32z"/></g><path d="m110.059 288h67.882v16h-67.882z" fill="#d65246" transform="matrix(.707 -.707 .707 .707 -167.132 188.533)"/><path d="m174.059 352h67.882v16h-67.882z" fill="#d65246" transform="matrix(.707 -.707 .707 .707 -193.641 252.537)"/><path d="m64 168h16v48h-16z" fill="#dfdfdd"/><path d="m112 168h16v48h-16z" fill="#dfdfdd"/><path d="m160 168h16v48h-16z" fill="#dfdfdd"/><path d="m208 168h16v48h-16z" fill="#dfdfdd"/><path d="m256 168h16v48h-16z" fill="#dfdfdd"/></g></svg>