<svg enable-background="new 0 0 24 24" height="512" viewBox="0 0 24 24" width="512" xmlns="http://www.w3.org/2000/svg"><path d="m23.773 21.937-2.636-14.5c-.151-.833-.875-1.437-1.721-1.437h-14.832c-.846 0-1.57.604-1.722 1.437l-2.636 14.5c-.093.512.044 1.035.378 1.434.333.4.824.629 1.344.629h20.104c.521 0 1.011-.229 1.344-.629.333-.399.471-.922.377-1.434zm-12.978-3.109c-.147.156-.346.234-.545.234-.185 0-.371-.068-.516-.205l-2.234-2.114v1.507c0 .414-.336.75-.75.75s-.75-.336-.75-.75v-3.253-3.247c0-.414.336-.75.75-.75s.75.336.75.75v1.53l2.24-2.08c.304-.282.778-.264 1.06.04.282.303.264.778-.04 1.06l-2.914 2.706 2.919 2.762c.301.285.315.759.03 1.06zm7.205-5.078c0 .414-.336.75-.75.75s-.75-.336-.75-.75v-.25c0-.551-.449-1-1-1s-1 .449-1 1v3c0 .551.449 1 1 1s1-.449 1-1h-.75c-.414 0-.75-.336-.75-.75s.336-.75.75-.75h1.5c.414 0 .75.336.75.75v.75c0 1.378-1.122 2.5-2.5 2.5s-2.5-1.122-2.5-2.5v-3c0-1.378 1.122-2.5 2.5-2.5s2.5 1.122 2.5 2.5z"/><path d="m12 7.5c-2.068 0-3.75-1.682-3.75-3.75s1.682-3.75 3.75-3.75 3.75 1.682 3.75 3.75-1.682 3.75-3.75 3.75zm0-5.5c-.965 0-1.75.785-1.75 1.75s.785 1.75 1.75 1.75 1.75-.785 1.75-1.75-.785-1.75-1.75-1.75z"/></svg>